<svg width="27" height="27" viewBox="0 0 41 41" fill="none" xmlns="http://www.w3.org/2000/svg">
<path d="M15.6004 4.0017e-05C24.2163 4.0017e-05 31.2009 6.98461 31.2009 15.6004C31.2009 24.2163 24.2163 31.2009 15.6005 31.2009C6.98453 31.2009 0 24.2163 0 15.6005C0.01025 6.98873 6.98869 0.01025 15.5995 0H15.6005L15.6004 4.0017e-05ZM15.6004 27.5897C22.2219 27.5897 27.5897 22.222 27.5897 15.6004C27.5897 8.97891 22.2219 3.61128 15.6004 3.61128C8.97895 3.61128 3.6112 8.97903 3.6112 15.6006C3.61941 22.2187 8.98227 27.5816 15.5997 27.5898H15.6005L15.6004 27.5897ZM38.4415 41L23.8034 26.3565L26.3565 23.8034L41 38.4415L38.4415 41Z" fill="white"/>
</svg>
